<?xml version="1.0" encoding="UTF-8" standalone="no"?>
<!-- Created with Inkscape (http://www.inkscape.org/) -->

<svg
   version="1.1"
   id="svg533093"
   width="600"
   height="600"
   viewBox="0 0 600 600"
   sodipodi:docname="fun_sim_FIN.svg"
   inkscape:version="1.2.2 (732a01da63, 2022-12-09)"
   xmlns:inkscape="http://www.inkscape.org/namespaces/inkscape"
   xmlns:sodipodi="http://sodipodi.sourceforge.net/DTD/sodipodi-0.dtd"
   xmlns="http://www.w3.org/2000/svg"
   xmlns:svg="http://www.w3.org/2000/svg">
  <defs
     id="defs533097">
    <clipPath
       clipPathUnits="userSpaceOnUse"
       id="clipPath533115">
      <path
         d="m 417,342.602 h 4023.2 v 4097.6 H 417 Z"
         id="path533113" />
    </clipPath>
  </defs>
  <sodipodi:namedview
     id="namedview533095"
     pagecolor="#ffffff"
     bordercolor="#666666"
     borderopacity="1.0"
     inkscape:showpageshadow="2"
     inkscape:pageopacity="0.0"
     inkscape:pagecheckerboard="0"
     inkscape:deskcolor="#d1d1d1"
     showgrid="false"
     inkscape:zoom="1.0276618"
     inkscape:cx="51.573387"
     inkscape:cy="280.24784"
     inkscape:window-width="1920"
     inkscape:window-height="1027"
     inkscape:window-x="1912"
     inkscape:window-y="-8"
     inkscape:window-maximized="1"
     inkscape:current-layer="g490406">
    <inkscape:page
       x="0"
       y="0"
       id="page533099"
       width="600"
       height="600" />
  </sodipodi:namedview>
  <g
     id="g533101"
     inkscape:groupmode="layer"
     inkscape:label="Page 1"
     transform="matrix(1.3333333,0,0,-1.3333333,0,600)">
    <g
       id="g533103"
       transform="scale(0.1)">
      <g
         id="g490406">
        <g
           id="g490491">
          <path
             d="M 0,0 H 4500 V 4500 H 0 Z"
             style="fill:#ffffff;fill-opacity:1;fill-rule:nonzero;stroke:none"
             id="path533105" />
          <path
             d="M 0,0 H 4500 V 4500 H 0 Z"
             style="fill:none;stroke:#000000;stroke-width:11.6;stroke-linecap:round;stroke-linejoin:round;stroke-miterlimit:10;stroke-dasharray:none;stroke-opacity:1"
             id="path533107" />
          <g
             id="g533109">
            <g
               id="g533111"
               clip-path="url(#clipPath533115)">
              <path
                 d="m 417,342.602 h 4023.2 v 4097.7 H 417 Z"
                 style="fill:#ffffff;fill-opacity:1;fill-rule:nonzero;stroke:none"
                 id="path533117" />
              <path
                 d="m 2041.7,4254 c 0,10.77 -8.73,19.5 -19.5,19.5 -10.77,0 -19.5,-8.73 -19.5,-19.5 0,-10.77 8.73,-19.5 19.5,-19.5 10.77,0 19.5,8.73 19.5,19.5"
                 style="fill:#000000;fill-opacity:1;fill-rule:nonzero;stroke:none"
                 id="path533119" />
              <path
                 d="m 2041.7,4254 c 0,10.77 -8.73,19.5 -19.5,19.5 -10.77,0 -19.5,-8.73 -19.5,-19.5 0,-10.77 8.73,-19.5 19.5,-19.5 10.77,0 19.5,8.73 19.5,19.5"
                 style="fill:none;stroke:#000000;stroke-width:7.1;stroke-linecap:round;stroke-linejoin:round;stroke-miterlimit:10;stroke-dasharray:none;stroke-opacity:1"
                 id="path533121" />
              <path
                 d="m 2752.9,715.5 c 0,10.77 -8.73,19.5 -19.5,19.5 -10.77,0 -19.5,-8.73 -19.5,-19.5 0,-10.77 8.73,-19.5 19.5,-19.5 10.77,0 19.5,8.73 19.5,19.5"
                 style="fill:#000000;fill-opacity:1;fill-rule:nonzero;stroke:none"
                 id="path533123" />
              <path
                 d="m 2752.9,715.5 c 0,10.77 -8.73,19.5 -19.5,19.5 -10.77,0 -19.5,-8.73 -19.5,-19.5 0,-10.77 8.73,-19.5 19.5,-19.5 10.77,0 19.5,8.73 19.5,19.5"
                 style="fill:none;stroke:#000000;stroke-width:7.1;stroke-linecap:round;stroke-linejoin:round;stroke-miterlimit:10;stroke-dasharray:none;stroke-opacity:1"
                 id="path533125" />
              <path
                 d="m 1940.1,3367.4 c 0,10.77 -8.73,19.5 -19.5,19.5 -10.77,0 -19.5,-8.73 -19.5,-19.5 0,-10.77 8.73,-19.5 19.5,-19.5 10.77,0 19.5,8.73 19.5,19.5"
                 style="fill:#000000;fill-opacity:1;fill-rule:nonzero;stroke:none"
                 id="path533127" />
              <path
                 d="m 1940.1,3367.4 c 0,10.77 -8.73,19.5 -19.5,19.5 -10.77,0 -19.5,-8.73 -19.5,-19.5 0,-10.77 8.73,-19.5 19.5,-19.5 10.77,0 19.5,8.73 19.5,19.5"
                 style="fill:none;stroke:#000000;stroke-width:7.1;stroke-linecap:round;stroke-linejoin:round;stroke-miterlimit:10;stroke-dasharray:none;stroke-opacity:1"
                 id="path533129" />
              <path
                 d="m 2041.7,2372 c 0,10.77 -8.73,19.5 -19.5,19.5 -10.77,0 -19.5,-8.73 -19.5,-19.5 0,-10.77 8.73,-19.5 19.5,-19.5 10.77,0 19.5,8.73 19.5,19.5"
                 style="fill:#000000;fill-opacity:1;fill-rule:nonzero;stroke:none"
                 id="path533131" />
              <path
                 d="m 2041.7,2372 c 0,10.77 -8.73,19.5 -19.5,19.5 -10.77,0 -19.5,-8.73 -19.5,-19.5 0,-10.77 8.73,-19.5 19.5,-19.5 10.77,0 19.5,8.73 19.5,19.5"
                 style="fill:none;stroke:#000000;stroke-width:7.1;stroke-linecap:round;stroke-linejoin:round;stroke-miterlimit:10;stroke-dasharray:none;stroke-opacity:1"
                 id="path533133" />
              <path
                 d="m 3362.5,528.801 c 0,10.769 -8.73,19.5 -19.5,19.5 -10.77,0 -19.5,-8.731 -19.5,-19.5 0,-10.77 8.73,-19.5 19.5,-19.5 10.77,0 19.5,8.73 19.5,19.5"
                 style="fill:#000000;fill-opacity:1;fill-rule:nonzero;stroke:none"
                 id="path533135" />
              <path
                 d="m 3362.5,528.801 c 0,10.769 -8.73,19.5 -19.5,19.5 -10.77,0 -19.5,-8.731 -19.5,-19.5 0,-10.77 8.73,-19.5 19.5,-19.5 10.77,0 19.5,8.73 19.5,19.5"
                 style="fill:none;stroke:#000000;stroke-width:7.1;stroke-linecap:round;stroke-linejoin:round;stroke-miterlimit:10;stroke-dasharray:none;stroke-opacity:1"
                 id="path533137" />
              <path
                 d="m 3667.3,723.199 c 0,10.77 -8.73,19.5 -19.5,19.5 -10.77,0 -19.5,-8.73 -19.5,-19.5 0,-10.769 8.73,-19.5 19.5,-19.5 10.77,0 19.5,8.731 19.5,19.5"
                 style="fill:#000000;fill-opacity:1;fill-rule:nonzero;stroke:none"
                 id="path533139" />
              <path
                 d="m 3667.3,723.199 c 0,10.77 -8.73,19.5 -19.5,19.5 -10.77,0 -19.5,-8.73 -19.5,-19.5 0,-10.769 8.73,-19.5 19.5,-19.5 10.77,0 19.5,8.731 19.5,19.5"
                 style="fill:none;stroke:#000000;stroke-width:7.1;stroke-linecap:round;stroke-linejoin:round;stroke-miterlimit:10;stroke-dasharray:none;stroke-opacity:1"
                 id="path533141" />
              <path
                 d="m 1940.1,3227.4 c 0,10.77 -8.73,19.5 -19.5,19.5 -10.77,0 -19.5,-8.73 -19.5,-19.5 0,-10.77 8.73,-19.5 19.5,-19.5 10.77,0 19.5,8.73 19.5,19.5"
                 style="fill:#000000;fill-opacity:1;fill-rule:nonzero;stroke:none"
                 id="path533143" />
              <path
                 d="m 1940.1,3227.4 c 0,10.77 -8.73,19.5 -19.5,19.5 -10.77,0 -19.5,-8.73 -19.5,-19.5 0,-10.77 8.73,-19.5 19.5,-19.5 10.77,0 19.5,8.73 19.5,19.5"
                 style="fill:none;stroke:#000000;stroke-width:7.1;stroke-linecap:round;stroke-linejoin:round;stroke-miterlimit:10;stroke-dasharray:none;stroke-opacity:1"
                 id="path533145" />
              <path
                 d="m 2448.1,1928.7 c 0,10.77 -8.73,19.5 -19.5,19.5 -10.77,0 -19.5,-8.73 -19.5,-19.5 0,-10.77 8.73,-19.5 19.5,-19.5 10.77,0 19.5,8.73 19.5,19.5"
                 style="fill:#000000;fill-opacity:1;fill-rule:nonzero;stroke:none"
                 id="path533147" />
              <path
                 d="m 2448.1,1928.7 c 0,10.77 -8.73,19.5 -19.5,19.5 -10.77,0 -19.5,-8.73 -19.5,-19.5 0,-10.77 8.73,-19.5 19.5,-19.5 10.77,0 19.5,8.73 19.5,19.5"
                 style="fill:none;stroke:#000000;stroke-width:7.1;stroke-linecap:round;stroke-linejoin:round;stroke-miterlimit:10;stroke-dasharray:none;stroke-opacity:1"
                 id="path533149" />
              <path
                 d="m 4276.9,1648.7 c 0,10.77 -8.73,19.5 -19.5,19.5 -10.77,0 -19.5,-8.73 -19.5,-19.5 0,-10.77 8.73,-19.5 19.5,-19.5 10.77,0 19.5,8.73 19.5,19.5"
                 style="fill:#000000;fill-opacity:1;fill-rule:nonzero;stroke:none"
                 id="path533151" />
              <path
                 d="m 4276.9,1648.7 c 0,10.77 -8.73,19.5 -19.5,19.5 -10.77,0 -19.5,-8.73 -19.5,-19.5 0,-10.77 8.73,-19.5 19.5,-19.5 10.77,0 19.5,8.73 19.5,19.5"
                 style="fill:none;stroke:#000000;stroke-width:7.1;stroke-linecap:round;stroke-linejoin:round;stroke-miterlimit:10;stroke-dasharray:none;stroke-opacity:1"
                 id="path533153" />
              <path
                 d="m 2549.7,2286.4 c 0,10.77 -8.73,19.5 -19.5,19.5 -10.77,0 -19.5,-8.73 -19.5,-19.5 0,-10.77 8.73,-19.5 19.5,-19.5 10.77,0 19.5,8.73 19.5,19.5"
                 style="fill:#000000;fill-opacity:1;fill-rule:nonzero;stroke:none"
                 id="path533155" />
              <path
                 d="m 2549.7,2286.4 c 0,10.77 -8.73,19.5 -19.5,19.5 -10.77,0 -19.5,-8.73 -19.5,-19.5 0,-10.77 8.73,-19.5 19.5,-19.5 10.77,0 19.5,8.73 19.5,19.5"
                 style="fill:none;stroke:#000000;stroke-width:7.1;stroke-linecap:round;stroke-linejoin:round;stroke-miterlimit:10;stroke-dasharray:none;stroke-opacity:1"
                 id="path533157" />
              <path
                 d="m 2041.7,4176.2 c 0,10.77 -8.73,19.5 -19.5,19.5 -10.77,0 -19.5,-8.73 -19.5,-19.5 0,-10.77 8.73,-19.5 19.5,-19.5 10.77,0 19.5,8.73 19.5,19.5"
                 style="fill:#000000;fill-opacity:1;fill-rule:nonzero;stroke:none"
                 id="path533159" />
              <path
                 d="m 2041.7,4176.2 c 0,10.77 -8.73,19.5 -19.5,19.5 -10.77,0 -19.5,-8.73 -19.5,-19.5 0,-10.77 8.73,-19.5 19.5,-19.5 10.77,0 19.5,8.73 19.5,19.5"
                 style="fill:none;stroke:#000000;stroke-width:7.1;stroke-linecap:round;stroke-linejoin:round;stroke-miterlimit:10;stroke-dasharray:none;stroke-opacity:1"
                 id="path533161" />
              <path
                 d="m 1228.9,1135.4 c 0,10.77 -8.73,19.5 -19.5,19.5 -10.77,0 -19.5,-8.73 -19.5,-19.5 0,-10.77 8.73,-19.5 19.5,-19.5 10.77,0 19.5,8.73 19.5,19.5"
                 style="fill:#000000;fill-opacity:1;fill-rule:nonzero;stroke:none"
                 id="path533163" />
              <path
                 d="m 1228.9,1135.4 c 0,10.77 -8.73,19.5 -19.5,19.5 -10.77,0 -19.5,-8.73 -19.5,-19.5 0,-10.77 8.73,-19.5 19.5,-19.5 10.77,0 19.5,8.73 19.5,19.5"
                 style="fill:none;stroke:#000000;stroke-width:7.1;stroke-linecap:round;stroke-linejoin:round;stroke-miterlimit:10;stroke-dasharray:none;stroke-opacity:1"
                 id="path533165" />
              <path
                 d="m 2041.7,3966.2 c 0,10.77 -8.73,19.5 -19.5,19.5 -10.77,0 -19.5,-8.73 -19.5,-19.5 0,-10.77 8.73,-19.5 19.5,-19.5 10.77,0 19.5,8.73 19.5,19.5"
                 style="fill:#000000;fill-opacity:1;fill-rule:nonzero;stroke:none"
                 id="path533167" />
              <path
                 d="m 2041.7,3966.2 c 0,10.77 -8.73,19.5 -19.5,19.5 -10.77,0 -19.5,-8.73 -19.5,-19.5 0,-10.77 8.73,-19.5 19.5,-19.5 10.77,0 19.5,8.73 19.5,19.5"
                 style="fill:none;stroke:#000000;stroke-width:7.1;stroke-linecap:round;stroke-linejoin:round;stroke-miterlimit:10;stroke-dasharray:none;stroke-opacity:1"
                 id="path533169" />
              <path
                 d="m 1940.1,4082.9 c 0,10.77 -8.73,19.5 -19.5,19.5 -10.77,0 -19.5,-8.73 -19.5,-19.5 0,-10.77 8.73,-19.5 19.5,-19.5 10.77,0 19.5,8.73 19.5,19.5"
                 style="fill:#000000;fill-opacity:1;fill-rule:nonzero;stroke:none"
                 id="path533171" />
              <path
                 d="m 1940.1,4082.9 c 0,10.77 -8.73,19.5 -19.5,19.5 -10.77,0 -19.5,-8.73 -19.5,-19.5 0,-10.77 8.73,-19.5 19.5,-19.5 10.77,0 19.5,8.73 19.5,19.5"
                 style="fill:none;stroke:#000000;stroke-width:7.1;stroke-linecap:round;stroke-linejoin:round;stroke-miterlimit:10;stroke-dasharray:none;stroke-opacity:1"
                 id="path533173" />
              <path
                 d="m 2041.7,1345.4 c 0,10.77 -8.73,19.5 -19.5,19.5 -10.77,0 -19.5,-8.73 -19.5,-19.5 0,-10.77 8.73,-19.5 19.5,-19.5 10.77,0 19.5,8.73 19.5,19.5"
                 style="fill:#000000;fill-opacity:1;fill-rule:nonzero;stroke:none"
                 id="path533175" />
              <path
                 d="m 2041.7,1345.4 c 0,10.77 -8.73,19.5 -19.5,19.5 -10.77,0 -19.5,-8.73 -19.5,-19.5 0,-10.77 8.73,-19.5 19.5,-19.5 10.77,0 19.5,8.73 19.5,19.5"
                 style="fill:none;stroke:#000000;stroke-width:7.1;stroke-linecap:round;stroke-linejoin:round;stroke-miterlimit:10;stroke-dasharray:none;stroke-opacity:1"
                 id="path533177" />
              <path
                 d="m 3159.3,1088.8 c 0,10.77 -8.73,19.5 -19.5,19.5 -10.77,0 -19.5,-8.73 -19.5,-19.5 0,-10.77 8.73,-19.5 19.5,-19.5 10.77,0 19.5,8.73 19.5,19.5"
                 style="fill:#000000;fill-opacity:1;fill-rule:nonzero;stroke:none"
                 id="path533179" />
              <path
                 d="m 3159.3,1088.8 c 0,10.77 -8.73,19.5 -19.5,19.5 -10.77,0 -19.5,-8.73 -19.5,-19.5 0,-10.77 8.73,-19.5 19.5,-19.5 10.77,0 19.5,8.73 19.5,19.5"
                 style="fill:none;stroke:#000000;stroke-width:7.1;stroke-linecap:round;stroke-linejoin:round;stroke-miterlimit:10;stroke-dasharray:none;stroke-opacity:1"
                 id="path533181" />
              <path
                 d="m 3159.3,1609.8 c 0,10.77 -8.73,19.5 -19.5,19.5 -10.77,0 -19.5,-8.73 -19.5,-19.5 0,-10.77 8.73,-19.5 19.5,-19.5 10.77,0 19.5,8.73 19.5,19.5"
                 style="fill:#000000;fill-opacity:1;fill-rule:nonzero;stroke:none"
                 id="path533183" />
              <path
                 d="m 3159.3,1609.8 c 0,10.77 -8.73,19.5 -19.5,19.5 -10.77,0 -19.5,-8.73 -19.5,-19.5 0,-10.77 8.73,-19.5 19.5,-19.5 10.77,0 19.5,8.73 19.5,19.5"
                 style="fill:none;stroke:#000000;stroke-width:7.1;stroke-linecap:round;stroke-linejoin:round;stroke-miterlimit:10;stroke-dasharray:none;stroke-opacity:1"
                 id="path533185" />
              <path
                 d="m 1838.5,2053.1 c 0,10.77 -8.73,19.5 -19.5,19.5 -10.77,0 -19.5,-8.73 -19.5,-19.5 0,-10.77 8.73,-19.5 19.5,-19.5 10.77,0 19.5,8.73 19.5,19.5"
                 style="fill:#000000;fill-opacity:1;fill-rule:nonzero;stroke:none"
                 id="path533187" />
              <path
                 d="m 1838.5,2053.1 c 0,10.77 -8.73,19.5 -19.5,19.5 -10.77,0 -19.5,-8.73 -19.5,-19.5 0,-10.77 8.73,-19.5 19.5,-19.5 10.77,0 19.5,8.73 19.5,19.5"
                 style="fill:none;stroke:#000000;stroke-width:7.1;stroke-linecap:round;stroke-linejoin:round;stroke-miterlimit:10;stroke-dasharray:none;stroke-opacity:1"
                 id="path533189" />
              <path
                 d="m 1330.5,2613 c 0,10.77 -8.73,19.5 -19.5,19.5 -10.77,0 -19.5,-8.73 -19.5,-19.5 0,-10.77 8.73,-19.5 19.5,-19.5 10.77,0 19.5,8.73 19.5,19.5"
                 style="fill:#000000;fill-opacity:1;fill-rule:nonzero;stroke:none"
                 id="path533191" />
              <path
                 d="m 1330.5,2613 c 0,10.77 -8.73,19.5 -19.5,19.5 -10.77,0 -19.5,-8.73 -19.5,-19.5 0,-10.77 8.73,-19.5 19.5,-19.5 10.77,0 19.5,8.73 19.5,19.5"
                 style="fill:none;stroke:#000000;stroke-width:7.1;stroke-linecap:round;stroke-linejoin:round;stroke-miterlimit:10;stroke-dasharray:none;stroke-opacity:1"
                 id="path533193" />
              <path
                 d="m 2244.9,1843.1 c 0,10.77 -8.73,19.5 -19.5,19.5 -10.77,0 -19.5,-8.73 -19.5,-19.5 0,-10.77 8.73,-19.5 19.5,-19.5 10.77,0 19.5,8.73 19.5,19.5"
                 style="fill:#000000;fill-opacity:1;fill-rule:nonzero;stroke:none"
                 id="path533195" />
              <path
                 d="m 2244.9,1843.1 c 0,10.77 -8.73,19.5 -19.5,19.5 -10.77,0 -19.5,-8.73 -19.5,-19.5 0,-10.77 8.73,-19.5 19.5,-19.5 10.77,0 19.5,8.73 19.5,19.5"
                 style="fill:none;stroke:#000000;stroke-width:7.1;stroke-linecap:round;stroke-linejoin:round;stroke-miterlimit:10;stroke-dasharray:none;stroke-opacity:1"
                 id="path533197" />
              <path
                 d="m 2244.9,2519.7 c 0,10.77 -8.73,19.5 -19.5,19.5 -10.77,0 -19.5,-8.73 -19.5,-19.5 0,-10.77 8.73,-19.5 19.5,-19.5 10.77,0 19.5,8.73 19.5,19.5"
                 style="fill:#000000;fill-opacity:1;fill-rule:nonzero;stroke:none"
                 id="path533199" />
              <path
                 d="m 2244.9,2519.7 c 0,10.77 -8.73,19.5 -19.5,19.5 -10.77,0 -19.5,-8.73 -19.5,-19.5 0,-10.77 8.73,-19.5 19.5,-19.5 10.77,0 19.5,8.73 19.5,19.5"
                 style="fill:none;stroke:#000000;stroke-width:7.1;stroke-linecap:round;stroke-linejoin:round;stroke-miterlimit:10;stroke-dasharray:none;stroke-opacity:1"
                 id="path533201" />
              <path
                 d="m 2041.7,3834 c 0,10.77 -8.73,19.5 -19.5,19.5 -10.77,0 -19.5,-8.73 -19.5,-19.5 0,-10.77 8.73,-19.5 19.5,-19.5 10.77,0 19.5,8.73 19.5,19.5"
                 style="fill:#000000;fill-opacity:1;fill-rule:nonzero;stroke:none"
                 id="path533203" />
              <path
                 d="m 2041.7,3834 c 0,10.77 -8.73,19.5 -19.5,19.5 -10.77,0 -19.5,-8.73 -19.5,-19.5 0,-10.77 8.73,-19.5 19.5,-19.5 10.77,0 19.5,8.73 19.5,19.5"
                 style="fill:none;stroke:#000000;stroke-width:7.1;stroke-linecap:round;stroke-linejoin:round;stroke-miterlimit:10;stroke-dasharray:none;stroke-opacity:1"
                 id="path533205" />
              <path
                 d="m 619.398,1174.3 c 0,10.77 -8.73,19.5 -19.5,19.5 -10.769,0 -19.5,-8.73 -19.5,-19.5 0,-10.77 8.731,-19.5 19.5,-19.5 10.77,0 19.5,8.73 19.5,19.5"
                 style="fill:#000000;fill-opacity:1;fill-rule:nonzero;stroke:none"
                 id="path533207" />
              <path
                 d="m 619.398,1174.3 c 0,10.77 -8.73,19.5 -19.5,19.5 -10.769,0 -19.5,-8.73 -19.5,-19.5 0,-10.77 8.731,-19.5 19.5,-19.5 10.77,0 19.5,8.73 19.5,19.5"
                 style="fill:none;stroke:#000000;stroke-width:7.1;stroke-linecap:round;stroke-linejoin:round;stroke-miterlimit:10;stroke-dasharray:none;stroke-opacity:1"
                 id="path533209" />
              <path
                 d="m 2956.1,1438.7 c 0,10.77 -8.73,19.5 -19.5,19.5 -10.77,0 -19.5,-8.73 -19.5,-19.5 0,-10.77 8.73,-19.5 19.5,-19.5 10.77,0 19.5,8.73 19.5,19.5"
                 style="fill:#000000;fill-opacity:1;fill-rule:nonzero;stroke:none"
                 id="path533211" />
              <path
                 d="m 2956.1,1438.7 c 0,10.77 -8.73,19.5 -19.5,19.5 -10.77,0 -19.5,-8.73 -19.5,-19.5 0,-10.77 8.73,-19.5 19.5,-19.5 10.77,0 19.5,8.73 19.5,19.5"
                 style="fill:none;stroke:#000000;stroke-width:7.1;stroke-linecap:round;stroke-linejoin:round;stroke-miterlimit:10;stroke-dasharray:none;stroke-opacity:1"
                 id="path533213" />
              <path
                 d="m 2244.9,3592.9 c 0,10.77 -8.73,19.5 -19.5,19.5 -10.77,0 -19.5,-8.73 -19.5,-19.5 0,-10.77 8.73,-19.5 19.5,-19.5 10.77,0 19.5,8.73 19.5,19.5"
                 style="fill:#000000;fill-opacity:1;fill-rule:nonzero;stroke:none"
                 id="path533215" />
              <path
                 d="m 2244.9,3592.9 c 0,10.77 -8.73,19.5 -19.5,19.5 -10.77,0 -19.5,-8.73 -19.5,-19.5 0,-10.77 8.73,-19.5 19.5,-19.5 10.77,0 19.5,8.73 19.5,19.5"
                 style="fill:none;stroke:#000000;stroke-width:7.1;stroke-linecap:round;stroke-linejoin:round;stroke-miterlimit:10;stroke-dasharray:none;stroke-opacity:1"
                 id="path533217" />
              <path
                 d="M 2123.8,342.602 V 4440.2"
                 style="fill:none;stroke:#000000;stroke-width:10.7;stroke-linecap:butt;stroke-linejoin:round;stroke-miterlimit:10;stroke-dasharray:10.7, 32;stroke-dashoffset:0;stroke-opacity:1"
                 id="path533219" />
            </g>
          </g>
          <path
             d="M 417,342.602 V 4440.2"
             style="fill:none;stroke:#000000;stroke-width:11.6;stroke-linecap:butt;stroke-linejoin:round;stroke-miterlimit:10;stroke-dasharray:none;stroke-opacity:1"
             id="path533221" />
          <g
             id="g533223"
             transform="scale(10)">
            <text
               xml:space="preserve"
               transform="matrix(1,0,0,-1,30.7602,38.4)"
               style="font-variant:normal;font-weight:normal;font-size:10px;font-family:Helvetica;-inkscape-font-specification:Helvetica;writing-mode:lr-tb;fill:#4d4d4d;fill-opacity:1;fill-rule:nonzero;stroke:none"
               id="text533237"><tspan
                 x="0"
                 y="0"
                 id="tspan533225">0</tspan><tspan
                 x="-11.1195 -5.5595002 0.00050000002"
                 y="-77.769897"
                 sodipodi:role="line"
                 id="tspan533227">100</tspan><tspan
                 x="-11.1195 -5.5595002 0.00050000002"
                 y="-155.53979"
                 sodipodi:role="line"
                 id="tspan533229">200</tspan><tspan
                 x="-11.1195 -5.5595002 0.00050000002"
                 y="-233.3101"
                 sodipodi:role="line"
                 id="tspan533231">300</tspan><tspan
                 x="-11.1195 -5.5595002 0.00050000002"
                 y="-311.07999"
                 sodipodi:role="line"
                 id="tspan533233">400</tspan><tspan
                 x="-11.1195 -5.5595002 0.00050000002"
                 y="-388.84991"
                 sodipodi:role="line"
                 id="tspan533235">500</tspan></text>
          </g>
          <path
             d="M 387.102,419.898 H 417"
             style="fill:none;stroke:#333333;stroke-width:11.6;stroke-linecap:butt;stroke-linejoin:round;stroke-miterlimit:10;stroke-dasharray:none;stroke-opacity:1"
             id="path533239" />
          <path
             d="M 387.102,1197.6 H 417"
             style="fill:none;stroke:#333333;stroke-width:11.6;stroke-linecap:butt;stroke-linejoin:round;stroke-miterlimit:10;stroke-dasharray:none;stroke-opacity:1"
             id="path533241" />
          <path
             d="M 387.102,1975.3 H 417"
             style="fill:none;stroke:#333333;stroke-width:11.6;stroke-linecap:butt;stroke-linejoin:round;stroke-miterlimit:10;stroke-dasharray:none;stroke-opacity:1"
             id="path533243" />
          <path
             d="M 387.102,2753 H 417"
             style="fill:none;stroke:#333333;stroke-width:11.6;stroke-linecap:butt;stroke-linejoin:round;stroke-miterlimit:10;stroke-dasharray:none;stroke-opacity:1"
             id="path533245" />
          <path
             d="M 387.102,3530.7 H 417"
             style="fill:none;stroke:#333333;stroke-width:11.6;stroke-linecap:butt;stroke-linejoin:round;stroke-miterlimit:10;stroke-dasharray:none;stroke-opacity:1"
             id="path533247" />
          <path
             d="M 387.102,4308.4 H 417"
             style="fill:none;stroke:#333333;stroke-width:11.6;stroke-linecap:butt;stroke-linejoin:round;stroke-miterlimit:10;stroke-dasharray:none;stroke-opacity:1"
             id="path533249" />
          <path
             d="M 417,342.602 H 4440.2"
             style="fill:none;stroke:#000000;stroke-width:11.6;stroke-linecap:butt;stroke-linejoin:round;stroke-miterlimit:10;stroke-dasharray:none;stroke-opacity:1"
             id="path533251" />
          <path
             d="m 599.898,312.699 v 29.903"
             style="fill:none;stroke:#333333;stroke-width:11.6;stroke-linecap:butt;stroke-linejoin:round;stroke-miterlimit:10;stroke-dasharray:none;stroke-opacity:1"
             id="path533253" />
          <path
             d="m 1615.8,312.699 v 29.903"
             style="fill:none;stroke:#333333;stroke-width:11.6;stroke-linecap:butt;stroke-linejoin:round;stroke-miterlimit:10;stroke-dasharray:none;stroke-opacity:1"
             id="path533255" />
          <path
             d="m 2631.8,312.699 v 29.903"
             style="fill:none;stroke:#333333;stroke-width:11.6;stroke-linecap:butt;stroke-linejoin:round;stroke-miterlimit:10;stroke-dasharray:none;stroke-opacity:1"
             id="path533257" />
          <path
             d="m 3647.8,312.699 v 29.903"
             style="fill:none;stroke:#333333;stroke-width:11.6;stroke-linecap:butt;stroke-linejoin:round;stroke-miterlimit:10;stroke-dasharray:none;stroke-opacity:1"
             id="path533259" />
          <g
             id="g533261"
             transform="scale(10)">
            <text
               xml:space="preserve"
               transform="matrix(1,0,0,-1,53.0402,21.7)"
               style="font-variant:normal;font-weight:normal;font-size:10px;font-family:Helvetica;-inkscape-font-specification:Helvetica;writing-mode:lr-tb;fill:#4d4d4d;fill-opacity:1;fill-rule:nonzero;stroke:none"
               id="text533265"><tspan
                 x="0 5.5599999 8.3400002 101.5902 107.1502 109.9302 203.1902 208.7502 211.5302 304.79019 310.35019 313.13019"
                 y="0"
                 sodipodi:role="line"
                 id="tspan533263">0.10.20.30.4</tspan></text>
          </g>
          <text
             xml:space="preserve"
             transform="scale(1,-1)"
             style="font-variant:normal;font-weight:normal;font-size:120px;font-family:Helvetica;-inkscape-font-specification:Helvetica;writing-mode:lr-tb;fill:#000000;fill-opacity:1;fill-rule:nonzero;stroke:none;stroke-width:10"
             id="text533271"
             x="1952.4379"
             y="-80.300797"><tspan
               sodipodi:role="line"
               id="tspan533269"
               x="1952.4379"
               y="-80.300797"
               style="stroke-width:10">Tamaño de efecto</tspan></text>
          <text
             xml:space="preserve"
             transform="matrix(0,1,1,0,0,0)"
             style="font-variant:normal;font-weight:normal;font-size:120px;font-family:Helvetica;-inkscape-font-specification:Helvetica;writing-mode:lr-tb;fill:#000000;fill-opacity:1;fill-rule:nonzero;stroke:none;stroke-width:10"
             id="text533275"
             x="1862.2701"
             y="145.89799"><tspan
               sodipodi:role="line"
               id="tspan533273"
               x="1862.2701"
               y="145.89799"
               style="stroke-width:10">Tamaño de muestra</tspan></text>
        </g>
        <g
           id="g4631"
           transform="translate(-606.59155,709.89642)">
          <path
             d="m 3461.4154,3596.9989 -16.469,-0.1919 -16.4459,-0.4865 -16.4135,-0.8034 -16.3581,-1.1515 -16.1778,-1.4818 -16.0345,-1.7406 -15.8542,-2.004 -15.5815,-2.2673 -15.4337,-2.5485 -15.0777,-2.8207 -14.7356,-3.035 -14.426,-3.2625 -14.01,-3.4679 -13.6864,-3.7134 -13.1641,-3.9232 -12.7111,-4.0615 -12.2582,-4.2355 -11.7358,-4.4632 -11.1396,-4.6373 -10.5803,-4.7443 -9.984,-4.9497 -9.3369,-5.0925 -8.6851,-5.2621 -7.9641,-5.3558 -7.2939,-5.5254 -6.4804,-5.7174 -2.9952,-2.9992 -2.8195,-3.035 -2.5469,-3.0305 -2.362,-3.0707 -2.1123,-3.2269 -1.8951,-3.2581 -1.664,-3.2938 -1.3913,-3.4367 -1.1186,-3.4857 -0.7765,-3.5215 -0.5039,-3.6286 -0.1432,-3.2402 v 0.1205 l -0.148,-2.7538 0.093,0.8882 -0.3605,-2.7181 0.1432,0.8346 -0.6517,-2.7181 0.2357,0.7677 -0.8828,-2.7717 0.2681,0.7499 -1.1001,-2.7226 0.2727,0.5936 -1.3358,-2.6824 0.4114,0.7141 -1.6224,-2.6868 0.2865,0.4553 -1.8026,-2.7226 0.3235,0.4374 -1.9875,-2.669 0.3281,0.4374 -2.2787,-2.669 0.3282,0.3169 -2.4406,-2.6333 0.3097,0.3482 -2.6208,-2.6333 0.453,0.4017 -5.9581,-5.213 0.5039,0.4374 -6.7531,-5.1283 0.4715,0.3482 -7.4927,-5.0881 0.4715,0.2768 -8.2738,-4.9497 0.3652,0.2098 -8.9209,-4.8649 0.3605,0.1919 -9.605,-4.7801 0.3605,0.1786 -10.2567,-4.6061 0.2727,0.1429 -10.816,-4.5168 0.2912,0.1384 -11.4677,-4.3739 0.3235,0.1383 -12.0224,-4.1507 0.2357,0.036 -12.48,-4.008 0.2727,0.085 -12.9838,-3.8339 0.2357,0.085 -13.4137,-3.6598 0.2358,0.054 -13.8159,-3.401 0.1803,0.054 -14.1903,-3.2269 0.2358,0.054 -14.5739,-2.9993 0.1988,0.054 -14.9298,-2.7761 0.2172,0.053 -15.147,-2.5083 h 0.2311 l -15.4383,-2.2316 0.1849,0.049 -15.637,-2.004 0.1988,0.036 -15.8173,-1.6915 h 0.1803 l -15.9791,-1.4282 0.4484,0.049 -12.9422,-0.5892 0.9383,-20.0843 13.2149,0.5891 16.3211,1.4684 16.0345,1.7407 15.8543,2.0039 15.6185,2.2852 15.3458,2.544 15.1146,2.8073 14.7866,2.9815 14.3889,3.2625 14.047,3.4858 13.631,3.7134 13.2195,3.8695 12.7112,4.1151 12.2581,4.2356 11.7358,4.4632 11.1396,4.606 10.5803,4.7756 9.9886,4.9497 9.2953,5.0924 8.6852,5.1773 8.0011,5.4407 7.2569,5.5254 6.4618,5.6682 3.0553,3.0305 2.778,2.9993 2.5283,3.035 2.3666,3.1197 2.1309,3.1734 1.8951,3.2626 1.6594,3.3786 1.3913,3.3474 1.1,3.5393 0.7951,3.4724 0.5084,3.5705 0.1803,3.2269 0.088,2.8073 -0.088,-0.9953 0.3605,2.7404 -0.1294,-0.8033 0.6517,2.7537 -0.2357,-0.8346 0.869,2.7181 -0.2727,-0.7141 1.1185,2.7181 -0.3235,-0.6606 1.3358,2.6646 -0.2727,-0.4865 1.5716,2.6868 -0.3791,-0.5936 1.8073,2.6824 -0.3235,-0.4865 2.0384,2.669 -0.2912,-0.3169 2.2233,2.6868 -0.3606,-0.4552 2.4359,2.6868 -0.268,-0.3124 2.6716,2.6288 -0.453,-0.3972 5.9581,5.2621 -0.5593,-0.4865 6.7531,5.1773 -0.453,-0.3481 7.4741,5.0389 -0.4483,-0.2812 8.2691,5.0033 -0.416,-0.2589 8.9718,4.8961 -0.379,-0.174 9.6234,4.7443 -0.3235,-0.1383 10.2567,4.6015 -0.3236,-0.1384 10.8669,4.4945 -0.2866,-0.1205 11.4262,4.3784 -0.2866,-0.1429 11.9716,4.1508 -0.2358,-0.054 12.4939,4.0303 -0.2357,-0.089 12.9838,3.8384 -0.2727,-0.054 13.3999,3.6241 -0.1803,-0.085 13.8112,3.4679 -0.2172,-0.085 14.1902,3.2046 -0.1988,-0.031 14.5739,2.977 -0.1987,-0.031 14.8928,2.8073 -0.2311,-0.036 15.1655,2.4905 -0.1987,-0.049 15.4382,2.2806 -0.1803,-0.049 15.6324,2.0219 -0.2311,-0.054 15.8496,1.7451 -0.1803,-0.053 15.9791,1.4282 h -0.2173 l 16.127,1.1693 -0.2357,-0.053 16.2332,0.8034 h -0.1987 l 16.2286,0.4864 h -0.1803 l 16.3073,0.192 z m -634.9601,-210.3946 -61.1012,-32.501 63.5926,-27.7208 z"
             style="fill:#000000;fill-opacity:1;fill-rule:nonzero;stroke:none;stroke-width:4.54201"
             id="path1446-0" />
          <text
             xml:space="preserve"
             transform="scale(1,-1)"
             style="font-variant:normal;font-weight:normal;font-size:120px;font-family:Helvetica;-inkscape-font-specification:Helvetica;text-align:center;writing-mode:lr-tb;text-anchor:middle;fill:#000000;fill-opacity:1;fill-rule:nonzero;stroke:none;stroke-width:10"
             id="text533271-6-6"
             x="3772.7122"
             y="-3630.3579"><tspan
               sodipodi:role="line"
               id="tspan533269-3-7"
               x="3772.7122"
               y="-3630.3579"
               style="text-align:center;text-anchor:middle;stroke-width:10">Efecto real</tspan><tspan
               sodipodi:role="line"
               x="3772.7122"
               y="-3480.3579"
               style="text-align:center;text-anchor:middle;stroke-width:10"
               id="tspan4218">(r = 0.25)</tspan></text>
        </g>
      </g>
    </g>
  </g>
</svg>
